HIERARCHY
ROOT Hips
{
	OFFSET 0.000000 83.214638 0.000000
	CHANNELS 6 Xposition Yposition Zposition Xrotation Yrotation Zrotation
	JOINT Pelvis
	{
		OFFSET 0.000000 0.000000 0.000000
		CHANNELS 3 Xrotation Yrotation Zrotation
		JOINT LeftUpLeg
		{
			OFFSET 8.479700 -4.795502 -0.379100
			CHANNELS 3 Xrotation Yrotation Zrotation
			JOINT LeftLeg
			{
				OFFSET 0.024144 -32.555107 0.112900
				CHANNELS 3 Xrotation Yrotation Zrotation
				JOINT LeftFoot
				{
					OFFSET -0.024144 -32.638630 -3.012600
					CHANNELS 3 Xrotation Yrotation Zrotation
					JOINT LeftToeBase
					{
						OFFSET 0.970200 -13.225400 11.864200
						CHANNELS 3 Xrotation Yrotation Zrotation
						End Site
						{
							OFFSET 0.000000 12.319262 0.000000
						}
					}
					JOINT LFootTongue
					{
						OFFSET 1.142400 -1.059800 6.665200
						CHANNELS 3 Xrotation Yrotation Zrotation
						End Site
						{
							OFFSET 0.000000 12.319262 0.000000
						}
					}
				}
				JOINT LeftPantLeg
				{
					OFFSET 0.918482 -16.533964 -2.284700
					CHANNELS 3 Xrotation Yrotation Zrotation
					End Site
					{
						OFFSET 0.350399 24.744368 0.000000
					}
				}
			}
		}
		JOINT RightUpLeg
		{
			OFFSET -8.479700 -4.795502 -0.379100
			CHANNELS 3 Xrotation Yrotation Zrotation
			JOINT RightLeg
			{
				OFFSET -0.023144 -32.555092 0.112900
				CHANNELS 3 Xrotation Yrotation Zrotation
				JOINT RightFoot
				{
					OFFSET 0.023144 -32.638641 -3.012700
					CHANNELS 3 Xrotation Yrotation Zrotation
					JOINT RightToeBase
					{
						OFFSET -0.970200 -13.225400 11.864200
						CHANNELS 3 Xrotation Yrotation Zrotation
						End Site
						{
							OFFSET 0.000000 12.319244 0.000000
						}
					}
					JOINT RFootTongue
					{
						OFFSET -1.142200 -1.059800 6.665200
						CHANNELS 3 Xrotation Yrotation Zrotation
						End Site
						{
							OFFSET 0.000000 12.319243 0.000000
						}
					}
				}
				JOINT RightPantLeg
				{
					OFFSET -0.919482 -16.533978 -2.284800
					CHANNELS 3 Xrotation Yrotation Zrotation
					End Site
					{
						OFFSET -0.350400 24.744419 0.000000
					}
				}
			}
		}
	}
	JOINT Spine
	{
		OFFSET 0.000000 7.722000 1.166200
		CHANNELS 3 Xrotation Yrotation Zrotation
		JOINT Spine1
		{
			OFFSET 0.000000 12.024101 0.248800
			CHANNELS 3 Xrotation Yrotation Zrotation
			JOINT Spine2
			{
				OFFSET 0.000000 11.502998 -0.491200
				CHANNELS 3 Xrotation Yrotation Zrotation
				JOINT Neck
				{
					OFFSET 0.000000 18.430702 -3.123100
					CHANNELS 3 Xrotation Yrotation Zrotation
					JOINT Head
					{
						OFFSET 0.000000 9.051102 1.034000
						CHANNELS 3 Xrotation Yrotation Zrotation
						JOINT HairB
						{
							OFFSET 0.208400 24.786102 24.822300
							CHANNELS 3 Xrotation Yrotation Zrotation
							End Site
							{
								OFFSET 0.000000 32.263779 0.000000
							}
						}
						JOINT HairA
						{
							OFFSET -7.081100 24.428299 23.196600
							CHANNELS 3 Xrotation Yrotation Zrotation
							End Site
							{
								OFFSET 0.000000 32.263779 0.000000
							}
						}
						JOINT Hat
						{
							OFFSET 16.728800 15.048294 -15.439601
							CHANNELS 3 Xrotation Yrotation Zrotation
							End Site
							{
								OFFSET 0.000000 32.263779 0.000000
							}
						}
					}
				}
				JOINT LeftShoulder
				{
					OFFSET 6.197800 13.665199 -4.064700
					CHANNELS 3 Xrotation Yrotation Zrotation
					JOINT LeftArm
					{
						OFFSET 7.778100 -0.187103 -1.709300
						CHANNELS 3 Xrotation Yrotation Zrotation
						JOINT LeftForeArm
						{
							OFFSET 22.049376 0.000000 0.000000
							CHANNELS 3 Xrotation Yrotation Zrotation
							JOINT LeftHand
							{
								OFFSET 23.009392 0.000000 0.000000
								CHANNELS 3 Xrotation Yrotation Zrotation
								JOINT LeftHandThumb1
								{
									OFFSET 3.507191 -2.063065 3.133727
									CHANNELS 3 Xrotation Yrotation Zrotation
									JOINT LeftHandThumb2
									{
										OFFSET 3.101337 -1.790558 1.790558
										CHANNELS 3 Xrotation Yrotation Zrotation
										JOINT LeftHandThumb3
										{
											OFFSET 3.058640 -1.765907 1.765906
											CHANNELS 3 Xrotation Yrotation Zrotation
											End Site
											{
												OFFSET -0.415260 3.926476 -0.049563
											}
										}
									}
								}
								JOINT LeftHandIndex1
								{
									OFFSET 11.334419 -0.901459 3.706815
									CHANNELS 3 Xrotation Yrotation Zrotation
									JOINT LeftHandIndex2
									{
										OFFSET 3.283112 0.000000 0.000000
										CHANNELS 3 Xrotation Yrotation Zrotation
										JOINT LeftHandIndex3
										{
											OFFSET 3.323853 0.000000 0.000000
											CHANNELS 3 Xrotation Yrotation Zrotation
											End Site
											{
												OFFSET -1.135597 3.097809 0.402452
											}
										}
									}
								}
								JOINT LeftHandMiddle1
								{
									OFFSET 11.335861 0.000000 0.000000
									CHANNELS 3 Xrotation Yrotation Zrotation
									JOINT LeftHandMiddle2
									{
										OFFSET 3.410492 0.000000 0.000000
										CHANNELS 3 Xrotation Yrotation Zrotation
										JOINT LeftHandMiddle3
										{
											OFFSET 3.312172 0.000000 0.000000
											CHANNELS 3 Xrotation Yrotation Zrotation
											End Site
											{
												OFFSET -1.150200 3.080154 0.400270
											}
										}
									}
								}
								JOINT LeftHandRing1
								{
									OFFSET 11.514786 -0.013176 -3.003090
									CHANNELS 3 Xrotation Yrotation Zrotation
									JOINT LeftHandRing2
									{
										OFFSET 3.053307 0.000000 0.000000
										CHANNELS 3 Xrotation Yrotation Zrotation
										JOINT LeftHandRing3
										{
											OFFSET 3.295807 0.000000 0.000000
											CHANNELS 3 Xrotation Yrotation Zrotation
											End Site
											{
												OFFSET -1.281006 3.013344 0.375733
											}
										}
									}
								}
								JOINT LeftHandPinky1
								{
									OFFSET 10.518692 -0.960396 -5.730441
									CHANNELS 3 Xrotation Yrotation Zrotation
									JOINT LeftHandPinky2
									{
										OFFSET 2.861649 0.000000 0.000000
										CHANNELS 3 Xrotation Yrotation Zrotation
										JOINT LeftHandPinky3
										{
											OFFSET 2.863380 0.000000 0.000000
											CHANNELS 3 Xrotation Yrotation Zrotation
											End Site
											{
												OFFSET -0.843597 2.711159 0.369971
											}
										}
									}
								}
							}
							JOINT LSleeve
							{
								OFFSET 6.676277 -0.344902 -1.011730
								CHANNELS 3 Xrotation Yrotation Zrotation
								End Site
								{
									OFFSET 0.000000 14.885353 0.000000
								}
							}
						}
					}
				}
				JOINT RightShoulder
				{
					OFFSET -6.197800 13.665199 -4.064700
					CHANNELS 3 Xrotation Yrotation Zrotation
					JOINT RightArm
					{
						OFFSET -7.778100 -0.187103 -1.709300
						CHANNELS 3 Xrotation Yrotation Zrotation
						JOINT RightForeArm
						{
							OFFSET -22.049376 0.000000 0.000000
							CHANNELS 3 Xrotation Yrotation Zrotation
							JOINT RightHand
							{
								OFFSET -23.009392 0.000000 0.000000
								CHANNELS 3 Xrotation Yrotation Zrotation
								JOINT RightHandThumb1
								{
									OFFSET -3.507191 -2.063065 3.133727
									CHANNELS 3 Xrotation Yrotation Zrotation
									JOINT RightHandThumb2
									{
										OFFSET -3.101337 -1.790558 1.790558
										CHANNELS 3 Xrotation Yrotation Zrotation
										JOINT RightHandThumb3
										{
											OFFSET -3.058640 -1.765907 1.765906
											CHANNELS 3 Xrotation Yrotation Zrotation
											End Site
											{
												OFFSET 0.415260 3.926476 -0.049563
											}
										}
									}
								}
								JOINT RightHandIndex1
								{
									OFFSET -11.334419 -0.901459 3.706815
									CHANNELS 3 Xrotation Yrotation Zrotation
									JOINT RightHandIndex2
									{
										OFFSET -3.283112 0.000000 0.000000
										CHANNELS 3 Xrotation Yrotation Zrotation
										JOINT RightHandIndex3
										{
											OFFSET -3.323853 0.000000 0.000000
											CHANNELS 3 Xrotation Yrotation Zrotation
											End Site
											{
												OFFSET 1.135597 3.097809 0.402452
											}
										}
									}
								}
								JOINT RightHandMiddle1
								{
									OFFSET -11.335861 0.000000 0.000000
									CHANNELS 3 Xrotation Yrotation Zrotation
									JOINT RightHandMiddle2
									{
										OFFSET -3.410492 0.000000 0.000000
										CHANNELS 3 Xrotation Yrotation Zrotation
										JOINT RightHandMiddle3
										{
											OFFSET -3.312172 0.000000 0.000000
											CHANNELS 3 Xrotation Yrotation Zrotation
											End Site
											{
												OFFSET 1.150200 3.080154 0.400270
											}
										}
									}
								}
								JOINT RightHandRing1
								{
									OFFSET -11.514786 -0.013176 -3.003090
									CHANNELS 3 Xrotation Yrotation Zrotation
									JOINT RightHandRing2
									{
										OFFSET -3.053307 0.000000 0.000000
										CHANNELS 3 Xrotation Yrotation Zrotation
										JOINT RightHandRing3
										{
											OFFSET -3.295807 0.000000 0.000000
											CHANNELS 3 Xrotation Yrotation Zrotation
											End Site
											{
												OFFSET 1.281006 3.013344 0.375733
											}
										}
									}
								}
								JOINT RightHandPinky1
								{
									OFFSET -10.518692 -0.960396 -5.730441
									CHANNELS 3 Xrotation Yrotation Zrotation
									JOINT RightHandPinky2
									{
										OFFSET -2.861649 0.000000 0.000000
										CHANNELS 3 Xrotation Yrotation Zrotation
										JOINT RightHandPinky3
										{
											OFFSET -2.863380 0.000000 0.000000
											CHANNELS 3 Xrotation Yrotation Zrotation
											End Site
											{
												OFFSET 0.843597 2.711159 0.369971
											}
										}
									}
								}
							}
							JOINT RSleeve
							{
								OFFSET -6.676277 -0.344902 -1.011730
								CHANNELS 3 Xrotation Yrotation Zrotation
								End Site
								{
									OFFSET 0.000000 14.885353 0.000000
								}
							}
						}
					}
				}
				JOINT Backpack
				{
					OFFSET 0.000000 -2.471497 36.677502
					CHANNELS 3 Xrotation Yrotation Zrotation
					End Site
					{
						OFFSET 0.000000 20.427315 0.000000
					}
				}
				JOINT Hood
				{
					OFFSET 0.000000 18.754097 -10.431000
					CHANNELS 3 Xrotation Yrotation Zrotation
					JOINT Hood1
					{
						OFFSET 0.000000 -5.011002 -7.685901
						CHANNELS 3 Xrotation Yrotation Zrotation
						End Site
						{
							OFFSET 0.000000 9.175140 0.000000
						}
					}
				}
				JOINT LHoodieString
				{
					OFFSET 5.250500 16.397697 3.089900
					CHANNELS 3 Xrotation Yrotation Zrotation
					JOINT LHoodieString1
					{
						OFFSET 0.257700 -6.364304 3.694600
						CHANNELS 3 Xrotation Yrotation Zrotation
						JOINT LHoodieString2
						{
							OFFSET 0.000000 -9.643799 2.679100
							CHANNELS 3 Xrotation Yrotation Zrotation
							End Site
							{
								OFFSET 0.000000 10.009018 0.000000
							}
						}
					}
				}
				JOINT RHoodieString
				{
					OFFSET -5.250500 16.397697 3.089900
					CHANNELS 3 Xrotation Yrotation Zrotation
					JOINT RHoodieString1
					{
						OFFSET -0.257700 -6.364304 3.694600
						CHANNELS 3 Xrotation Yrotation Zrotation
						JOINT RHoodieString2
						{
							OFFSET 0.000000 -9.643799 2.679100
							CHANNELS 3 Xrotation Yrotation Zrotation
							End Site
							{
								OFFSET 0.000000 10.009018 0.000000
							}
						}
					}
				}
			}
			JOINT LBackpack_Strap
			{
				OFFSET 15.223200 -7.719803 -6.610900
				CHANNELS 3 Xrotation Yrotation Zrotation
				End Site
				{
					OFFSET 0.000000 16.040596 0.000000
				}
			}
			JOINT RBackpack_Strap
			{
				OFFSET -15.223000 -7.719803 -6.610900
				CHANNELS 3 Xrotation Yrotation Zrotation
				End Site
				{
					OFFSET 0.000000 16.040596 0.000000
				}
			}
		}
	}
	JOINT BoyFacialAnim_Joint
	{
		OFFSET 1.000000 -82.208099 -1.550900
		CHANNELS 3 Xrotation Yrotation Zrotation
		End Site
		{
			OFFSET 0.000000 30.012791 0.000000
		}
	}
}
MOTION
Frames: 4
Frame Time: 0.016667
9.807101 82.235420 -2.631343 -0.400209 -19.198093 -2.350257 0.000000 0.000001 -0.000000 -12.467774 6.828592 -1.424137 18.441999 9.332284 2.685064 -8.299670 19.291895 1.998071 0.000000 -0.000001 -0.000000 0.000000 -0.000001 -0.000000 -0.000000 0.000000 -0.000000 -13.721938 -7.315827 -11.420535 14.166033 2.791901 2.455480 -11.906183 -3.538183 6.240565 -0.000001 0.000000 0.000001 -0.000001 0.000000 0.000001 0.000000 0.000001 -0.000001 4.345708 1.231654 -2.330250 0.212745 0.451142 -0.248039 0.209996 0.457548 -0.249457 -0.676048 0.363728 3.241258 11.273842 13.135223 10.728869 -0.000001 -0.000000 0.000001 -0.000001 -0.000000 0.000001 -0.000001 -0.000000 0.000001 2.666471 -4.458574 -11.991965 -11.925379 -18.438343 -60.942629 -0.000001 -15.296887 0.000030 21.654174 -9.509547 -12.534861 3.397836 -6.557756 3.595387 15.782414 22.471703 8.580114 0.000001 0.000000 0.000001 -1.195636 -0.465182 -28.245549 0.364154 2.035057 -20.288317 -0.000001 -0.000001 -0.000002 0.355571 4.762386 -38.285997 0.507598 2.387222 -24.004930 0.000001 -0.000003 -0.000002 6.488010 10.665014 -48.294024 0.477656 2.318886 -23.275659 -0.000000 0.000003 0.000000 12.833127 15.275940 -52.520111 0.697255 2.773799 -28.215324 -0.000001 0.000002 0.000002 0.000002 0.000003 -0.000001 2.229752 0.129001 15.927380 5.674420 -0.408655 64.436961 0.000005 15.408087 0.000015 1.035994 6.325157 -5.049670 -1.352778 9.111908 0.370101 16.874390 -29.512773 -6.239158 0.000001 -0.000001 0.000000 -1.055120 2.974091 11.633330 0.216278 -1.404176 17.511913 -0.000001 0.000001 0.000004 -0.609022 -1.094606 18.696419 0.373076 -1.828110 23.066794 -0.000000 0.000000 0.000002 1.805381 -6.986254 25.613619 0.549364 -2.196235 28.084464 -0.000001 -0.000000 -0.000001 4.328872 -11.691937 36.199067 0.703971 -2.463966 31.885734 -0.000000 -0.000000 0.000002 -0.000000 -0.000000 0.000001 -0.000000 0.000001 -0.000000 -0.000000 0.000001 -0.000000 -0.000000 0.000001 -0.000000 -0.000000 0.000001 -0.000000 -0.000000 0.000001 -0.000000 -0.000000 0.000001 -0.000000 -0.000000 0.000001 -0.000000 -0.000000 0.000001 -0.000000 -0.000000 0.000001 -0.000000 -0.000000 -0.000000 -0.000000 -0.000000 -0.000000 -0.000000 0.000000 0.000001 -0.000000 
10.018071 82.232170 -2.536309 -0.322270 -19.498558 -2.459817 0.000000 0.000000 -0.000000 -12.503918 6.816758 -1.480182 18.394664 9.324223 2.691117 -8.283478 19.582045 2.148614 0.000000 -0.000002 -0.000000 0.000000 -0.000002 -0.000000 0.000000 0.000000 0.000000 -13.754403 -7.279478 -11.389854 14.026804 2.876485 2.462353 -12.072732 -3.538653 6.092623 -0.000000 0.000001 0.000000 -0.000000 0.000001 0.000000 0.000000 0.000002 0.000002 4.284319 0.976799 -2.400547 0.189583 0.383778 -0.265577 0.187300 0.390523 -0.267591 -0.708657 0.408955 3.345581 11.332361 13.840956 11.023654 -0.000000 -0.000000 0.000000 -0.000000 -0.000000 0.000000 -0.000000 -0.000000 0.000000 2.653987 -4.597922 -11.892585 -12.075092 -19.153013 -61.241218 -0.000003 -15.715099 0.000008 21.497078 -9.669884 -10.948819 3.397836 -6.557753 3.595389 15.782148 22.476865 8.582038 0.000002 -0.000001 0.000005 -1.165824 -0.588570 -27.380955 0.367657 2.044488 -20.386812 0.000001 -0.000001 -0.000002 0.364652 4.782504 -38.483243 0.512339 2.397873 -24.118648 0.000002 0.000001 -0.000001 6.537723 10.676699 -48.526865 0.471581 2.304709 -23.125077 -0.000002 0.000004 0.000000 12.766435 15.313057 -52.209556 0.688192 2.756865 -28.027512 -0.000002 0.000002 0.000000 -0.000001 0.000000 0.000001 2.263679 -0.037344 16.070484 5.438913 -0.171342 64.671482 -0.000006 15.685830 -0.000005 1.013122 5.195176 -3.929813 -1.352780 9.111905 0.370102 16.862016 -29.498313 -6.250177 0.000001 0.000001 -0.000001 -1.134069 2.859888 12.607716 0.219261 -1.413572 17.633023 -0.000000 0.000000 0.000004 -0.612865 -1.120414 18.937878 0.356229 -1.788060 22.532992 -0.000000 0.000001 -0.000002 1.775717 -6.972109 25.217369 0.529208 -2.158063 27.553878 -0.000002 0.000000 -0.000001 4.168407 -11.681592 35.243640 0.685223 -2.433595 31.446912 0.000001 -0.000000 -0.000001 -0.000000 -0.000001 0.000001 0.000000 -0.000000 0.000000 0.000000 -0.000000 0.000000 0.000000 -0.000000 0.000000 0.000000 -0.000000 0.000000 0.000000 -0.000000 0.000000 0.000000 0.000001 -0.000000 0.000000 -0.000000 0.000000 0.000000 -0.000000 0.000000 0.000000 0.000001 -0.000000 0.000000 -0.000002 -0.000000 0.000000 -0.000002 -0.000000 0.000000 0.000000 -0.000000 
10.216956 82.230400 -2.444154 -0.220159 -19.782559 -2.548615 0.000000 -0.000000 -0.000000 -12.554367 6.800840 -1.541622 18.329993 9.315552 2.697848 -8.264936 19.868028 2.294795 0.000000 0.000002 -0.000000 0.000000 0.000002 0.000000 -0.000000 0.000001 -0.000000 -13.803632 -7.243989 -11.364123 13.889458 2.915171 2.455776 -12.245719 -3.541498 5.964697 -0.000000 -0.000002 -0.000001 -0.000000 -0.000002 -0.000001 0.000000 0.000001 -0.000000 4.208853 0.704947 -2.495290 0.165082 0.312359 -0.289361 0.163353 0.319518 -0.292049 -0.743324 0.449651 3.455308 11.434275 14.520111 11.315072 -0.000001 0.000000 -0.000000 -0.000001 0.000000 -0.000000 -0.000001 0.000000 -0.000000 2.633635 -4.716144 -11.762449 -12.145289 -19.959020 -61.514610 0.000002 -16.226677 0.000002 21.493147 -9.651170 -9.215282 3.397835 -6.557753 3.595385 15.782090 22.484740 8.583428 0.000001 -0.000000 0.000001 -1.129463 -0.729814 -26.391108 0.368808 2.047570 -20.418629 0.000002 0.000001 -0.000003 0.367285 4.788604 -38.547026 0.516959 2.408114 -24.228756 0.000002 -0.000001 -0.000000 6.588688 10.690104 -48.752476 0.466770 2.293438 -23.004979 -0.000000 -0.000000 -0.000002 12.724928 15.349691 -51.963219 0.679186 2.739891 -27.839766 -0.000000 0.000001 -0.000000 -0.000000 0.000001 -0.000000 2.301185 -0.222087 16.229417 5.160326 0.078141 64.897807 -0.000003 15.935552 0.000018 1.068245 3.974127 -2.851370 -1.352779 9.111905 0.370102 16.865279 -29.501742 -6.248146 0.000000 -0.000002 0.000003 -1.209426 2.733153 13.613606 0.224444 -1.429764 17.841783 0.000000 0.000001 0.000004 -0.620057 -1.162472 19.354186 0.341809 -1.752903 22.066074 0.000000 0.000000 0.000002 1.768468 -6.976978 25.051968 0.508411 -2.117759 26.996439 -0.000002 0.000001 0.000000 4.032127 -11.667250 34.463359 0.664837 -2.399975 30.963556 -0.000001 0.000001 -0.000003 -0.000000 -0.000000 -0.000001 0.000000 -0.000002 -0.000000 0.000000 -0.000002 -0.000000 0.000000 -0.000002 -0.000000 0.000000 -0.000002 -0.000000 0.000000 -0.000002 0.000000 0.000000 -0.000002 -0.000000 0.000000 -0.000002 -0.000000 0.000000 -0.000002 0.000000 0.000000 -0.000002 -0.000000 0.000000 0.000000 0.000000 0.000000 0.000000 0.000000 0.000000 -0.000000 -0.000000 
10.404631 82.231178 -2.354797 -0.083858 -20.058363 -2.620607 0.000000 -0.000002 0.000000 -12.633182 6.772098 -1.611150 18.256575 9.305727 2.719309 -8.262704 20.166868 2.436600 0.000000 -0.000000 -0.000000 0.000000 -0.000000 0.000000 0.000000 -0.000001 -0.000000 -13.870604 -7.207372 -11.332501 13.727379 2.932999 2.447361 -12.394351 -3.543061 5.834937 -0.000001 -0.000002 -0.000000 -0.000001 -0.000002 -0.000000 0.000001 0.000001 0.000001 4.110681 0.427662 -2.611999 0.138035 0.240250 -0.315974 0.136930 0.247835 -0.319406 -0.779925 0.485274 3.569736 11.569292 15.164369 11.594005 -0.000000 -0.000000 0.000000 -0.000000 -0.000000 0.000000 -0.000000 -0.000000 0.000000 2.611132 -4.805595 -11.630850 -12.175098 -20.855180 -61.745265 0.000003 -16.823743 -0.000010 21.773873 -9.467337 -7.469704 3.397835 -6.557753 3.595389 15.782475 22.486808 8.582373 0.000001 -0.000000 -0.000001 -1.094903 -0.883133 -25.362219 0.367670 2.044539 -20.387164 0.000000 0.000002 -0.000001 0.363610 4.781222 -38.484066 0.522128 2.419552 -24.351241 0.000002 -0.000001 -0.000004 6.647717 10.706566 -49.003602 0.463676 2.286126 -22.927605 -0.000000 -0.000001 -0.000002 12.730821 15.396583 -51.808846 0.670462 2.723339 -27.656725 0.000001 -0.000001 -0.000002 -0.000000 0.000001 0.000000 2.342157 -0.439310 16.405413 4.855270 0.354272 65.099175 -0.000002 16.165733 0.000014 1.199193 2.678672 -1.823908 -1.352779 9.111906 0.370103 16.871592 -29.508757 -6.243241 0.000000 0.000000 -0.000001 -1.296309 2.624664 14.634727 0.231600 -1.451796 18.126294 -0.000001 -0.000003 0.000001 -0.630223 -1.217378 19.921754 0.330237 -1.724115 21.684927 0.000001 0.000000 0.000002 1.780262 -6.994582 25.111505 0.487747 -2.076726 26.431837 -0.000000 0.000000 -0.000001 3.913111 -11.644060 33.865908 0.643808 -2.364604 30.457678 -0.000001 -0.000000 -0.000001 -0.000001 -0.000000 0.000000 -0.000000 0.000000 -0.000000 -0.000000 0.000000 -0.000000 -0.000000 0.000000 -0.000000 -0.000000 0.000000 -0.000000 -0.000000 0.000000 -0.000000 -0.000000 -0.000001 -0.000000 -0.000000 0.000000 -0.000000 -0.000000 0.000000 -0.000000 -0.000000 -0.000001 -0.000000 -0.000000 0.000001 0.000001 -0.000000 0.000001 0.000001 0.000000 -0.000002 0.000000 
